<svg width="288" height="288" viewBox="0 0 288 288" fill="none" xmlns="http://www.w3.org/2000/svg">
<path d="M105.792 208H82.8687L73.7516 179.086H32.0736L23.4776 208H1.07564L41.7117 80.7085H64.0268L105.792 208ZM66.979 157.639L52.6521 110.404L38.499 157.639H66.979ZM135.209 189.679V156.597H107.858V133.761H135.209V100.679H153.443V133.761H180.881V156.597H153.443V189.679H135.209ZM260.139 161.199L280.544 169.101C277.36 183.341 272.064 193.76 264.654 200.359C257.245 206.9 248.128 210.171 237.303 210.171C223.7 210.171 212.672 204.932 204.221 194.455C194.496 182.356 189.634 166.033 189.634 145.483C189.634 123.776 194.525 106.786 204.308 94.5143C212.817 83.8633 224.25 78.5378 238.605 78.5378C250.298 78.5378 260.081 82.5319 267.954 90.5202C273.569 96.193 277.679 104.615 280.283 115.787L259.444 121.865C258.113 114.977 255.45 109.709 251.456 106.063C247.52 102.358 242.86 100.506 237.477 100.506C229.778 100.506 223.497 103.863 218.635 110.578C213.772 117.292 211.341 128.378 211.341 143.833C211.341 159.868 213.714 171.271 218.461 178.044C223.208 184.817 229.373 188.203 236.956 188.203C242.513 188.203 247.317 186.061 251.369 181.778C255.421 177.436 258.345 170.577 260.139 161.199Z" fill="#001AFF"/>
<path d="M1.07564 233.354H287.924V246.378H1.07564V233.354Z" fill="#001AFF"/>
<style>
    path { fill: #001AFF; }
    @media (prefers-color-scheme: dark) {
        path { fill: #3C67FF; }
    }
</style>
</svg>
